<svg xmlns="http://www.w3.org/2000/svg" width="140" height="140" viewBox="0 0 100 100">
  <g fill-rule="evenodd">
    <g fill="#4338CA" fill-opacity="0.05">
      <path opacity=".35" d="M96 95h4v1h-4v4h-1v-4h-9v4h-1v-4h-9v4h-1v-4h-9v4h-1v-4h-9v4h-1v-4h-9v4h-1v-4h-9v4h-1v-4h-9v4h-1v-4h-9v4h-1v-4H0v-1h15v-9H0v-1h15v-9H0v-1h15v-9H0v-1h15v-9H0v-1h15v-9H0v-1h15v-9H0v-1h15v-9H0v-1h15v-9H0v-1h15V0h1v15h9V0h1v15h9V0h1v15h9V0h1v15h9V0h1v15h9V0h1v15h9V0h1v15h9V0h1v15h4v1h-4v9h4v1h-4v9h4v1h-4v9h4v1h-4v9h4v1h-4v9h4v1h-4v9h4v1h-4v9h4v1h-4v9z"/>
      <path d="M6 5V0H5v5H0v1h5v94h1V6h94V5H6z"/>
    </g>
  </g>
</svg>
