<svg xmlns="http://www.w3.org/2000/svg" viewBox="0 0 64 64" role="img" aria-label="BringhurstDO LLC">
  <defs>
    <linearGradient id="g" x1="0" y1="0" x2="1" y2="1">
      <stop offset="0%" stop-color="#247D8A" />
      <stop offset="100%" stop-color="#586B76" />
    </linearGradient>
  </defs>
  <rect width="64" height="64" rx="16" fill="#F4F7F8" />
  <path d="M32 8 52 20v24L32 56 12 44V20L32 8Z" fill="url(#g)" />
  <path d="M32 16 45 23v18L32 48 19 41V23L32 16Z" fill="#F4F7F8" opacity=".16" />
  <path d="M24 24h7.4c4 0 6.4 1.9 6.4 5 0 2-.9 3.6-2.6 4.4 2.3.7 3.8 2.5 3.8 5 0 3.7-2.8 6-7.3 6H24V24Zm7 7.8c1.8 0 2.8-.8 2.8-2.1 0-1.4-1-2.1-2.8-2.1h-2.9v4.2H31Zm.3 8.6c2 0 3.1-.8 3.1-2.3 0-1.5-1.1-2.4-3.2-2.4h-3.1v4.7h3.2Z" fill="#FFFFFF" />
</svg>
